{
	"asset":{
		"generator":"Khronos glTF Blender I/O v4.2.60",
		"version":"2.0"
	},
	"scene":0,
	"scenes":[
		{
			"name":"Scene",
			"nodes":[
				0
			]
		}
	],
	"nodes":[
		{
			"mesh":0,
			"name":"model",
			"rotation":[
				0.7071067690849304,
				0,
				0,
				0.7071068286895752
			],
			"scale":[
				3.5591559410095215,
				3.5591559410095215,
				3.5591559410095215
			],
			"translation":[
				0,
				3.1187918186187744,
				0
			]
		}
	],
	"materials":[
		{
			"doubleSided":true,
			"name":"Material.001",
			"normalTexture":{
				"index":0
			},
			"pbrMetallicRoughness":{
				"baseColorTexture":{
					"index":1
				},
				"metallicRoughnessTexture":{
					"index":2
				}
			}
		}
	],
	"meshes":[
		{
			"name":"model",
			"primitives":[
				{
					"attributes":{
						"POSITION":0,
						"NORMAL":1,
						"TEXCOORD_0":2
					},
					"indices":3,
					"material":0
				}
			]
		}
	],
	"textures":[
		{
			"sampler":0,
			"source":0
		},
		{
			"sampler":0,
			"source":1
		},
		{
			"sampler":0,
			"source":2
		}
	],
	"images":[
		{
			"mimeType":"image/png",
			"name":"texture_normal",
			"uri":"texture_normal.png"
		},
		{
			"mimeType":"image/png",
			"name":"texture_diffuse",
			"uri":"texture_diffuse.png"
		},
		{
			"mimeType":"image/png",
			"name":"texture_metallic-texture_roughness",
			"uri":"texture_metallic-texture_roughness.png"
		}
	],
	"accessors":[
		{
			"bufferView":0,
			"componentType":5126,
			"count":20635,
			"max":[
				0.3477970063686371,
				0.24697700142860413,
				0.9511200189590454
			],
			"min":[
				-0.3479140102863312,
				-0.25341400504112244,
				-0.9461550116539001
			],
			"type":"VEC3"
		},
		{
			"bufferView":1,
			"componentType":5126,
			"count":20635,
			"type":"VEC3"
		},
		{
			"bufferView":2,
			"componentType":5126,
			"count":20635,
			"type":"VEC2"
		},
		{
			"bufferView":3,
			"componentType":5123,
			"count":98496,
			"type":"SCALAR"
		}
	],
	"bufferViews":[
		{
			"buffer":0,
			"byteLength":247620,
			"byteOffset":0,
			"target":34962
		},
		{
			"buffer":0,
			"byteLength":247620,
			"byteOffset":247620,
			"target":34962
		},
		{
			"buffer":0,
			"byteLength":165080,
			"byteOffset":495240,
			"target":34962
		},
		{
			"buffer":0,
			"byteLength":196992,
			"byteOffset":660320,
			"target":34963
		}
	],
	"samplers":[
		{
			"magFilter":9729,
			"minFilter":9987
		}
	],
	"buffers":[
		{
			"byteLength":857312,
			"uri":"mendez.bin"
		}
	]
}
